<?xml version="1.0" encoding="utf-8"?>
<!-- Generator: Adobe Illustrator 21.1.0, SVG Export Plug-In . SVG Version: 6.00 Build 0)  -->
<svg version="1.1" xmlns="http://www.w3.org/2000/svg" xmlns:xlink="http://www.w3.org/1999/xlink" x="0px" y="0px"
	 viewBox="0 0 1200 1200" style="enable-background:new 0 0 1200 1200;" xml:space="preserve">
<g id="Layer_1">
</g>
<g id="Layer_2">
</g>
<g id="Layer_3">
	<g>
		<path style="fill:#ECCB45;" d="M926.2,1152c-8,0-15.9-1.9-23.3-5.7L600,987l-303,159.3c-16.8,8.9-37.3,7.4-52.7-3.8
			c-15.4-11.2-23.1-30.1-19.9-48.9l57.9-337.3L37.3,517.3C23.6,504,18.7,484.1,24.6,466s21.5-31.3,40.4-34l338.7-49.2L555.2,75.9
			C563.6,58.8,581,48,600,48s36.4,10.8,44.8,27.9l151.5,306.9L1135,432c18.8,2.7,34.5,15.9,40.4,34s1,38-12.7,51.3L917.6,756.2
			l57.9,337.3c3.2,18.8-4.5,37.7-19.9,48.9C946.9,1148.8,936.6,1152,926.2,1152z M600,880.5c8,0,16,1.9,23.3,5.7l236.5,124.4
			l-45.2-263.4c-2.8-16.2,2.6-32.8,14.4-44.3l191.4-186.5L755.9,478c-16.3-2.4-30.4-12.6-37.6-27.4L600,211L481.7,450.6
			c-7.3,14.8-21.4,25-37.6,27.4l-264.5,38.4L371,702.9c11.8,11.5,17.2,28,14.4,44.3l-45.2,263.4l236.5-124.4
			C584,882.4,592,880.5,600,880.5z"/>
	</g>
	<g>
	</g>
	<g>
	</g>
	<g>
	</g>
	<g>
	</g>
	<g>
	</g>
	<g>
	</g>
	<g>
	</g>
	<g>
	</g>
	<g>
	</g>
	<g>
	</g>
	<g>
	</g>
	<g>
	</g>
	<g>
	</g>
	<g>
	</g>
	<g>
	</g>
</g>
</svg>
