<?xml version="1.0" encoding="utf-8"?>
<!-- Generator: Adobe Illustrator 21.1.0, SVG Export Plug-In . SVG Version: 6.00 Build 0)  -->
<svg version="1.1" xmlns="http://www.w3.org/2000/svg" xmlns:xlink="http://www.w3.org/1999/xlink" x="0px" y="0px"
	 viewBox="0 0 1200 1200" style="enable-background:new 0 0 1200 1200;" xml:space="preserve">
<g id="Layer_1">
</g>
<g id="Layer_2">
</g>
<g id="Layer_3">
	<g id="TeDN8z_4_">
		<g>
			<g>
				<path style="fill:#3E8948;" d="M624.7,1169c-1.8,0-3.5,0-5.2,0c-37.4-0.3-75.8-3.5-117.4-9.7c-30.6-4.6-66.8-10.1-103-16.8
					c-29.1-5.4-57.3-11.9-81.1-17.6c-71.3-17.1-128.1-34.8-178.8-55.8c-21.6-9-46.9-20.3-70.4-36.5c-10.4-7.1-34.6-23.8-44.8-54.9
					c-1.7-5.1-2.5-10.5-2.5-15.9l0-7.3c0-5.9,1.1-11.7,3.1-17.2c5.9-15.9,16.4-29,32.1-40c59.8-42.2,120.4-85,179.7-127
					c-16.3-9.1-32.1-19.9-47.3-32.5c-12.8-10.5-28.7-25.4-39.2-47c-3.8-7.9-8.4-20.5-8-35.6c0.3-12.1,4.8-42,41-57.9
					c36.4-16,72.8-32,109.2-48l9.3-4.1c-6.8-6-13.3-12.4-19.5-19.3c-11.8-13.1-19.5-26.5-23.4-41.2c-7.8-29.6,2.8-57.1,28.5-73.6
					c2.5-1.6,5-3.1,7.2-4.5c1.2-0.7,2.3-1.4,3.5-2.1c26.2-16.4,52.5-32.8,78.7-49.1c-15.8-16.1-20-32.9-20.7-44.7
					c-0.7-12.8,2.1-32.1,19.6-51.5c41.5-45.9,83.1-91.8,124.6-137.7L547,69.4c4.5-5,9-9.9,13.6-15l6.2-6.9
					c9.8-10.8,23.7-16.8,38.3-16.4c14.5,0.3,28.2,7,37.4,18.2c0.4,0.4,0.7,0.9,1,1.2l0.1,0.1l151.5,170.6
					c12.1,13.6,24.5,27.6,36.7,41.5c23.8,27,23.4,64.3-0.8,90.6c-1,1.1-2.1,2.2-3.2,3.3c18.1,11.6,36.3,23.2,54.4,34.7
					c4.6,2.9,9.2,5.9,13.8,8.8c6.6,4.2,13.2,8.4,19.8,12.7c16.9,10.8,24.5,24.5,27.9,34.1c3.5,10,6.2,26-1,45.6
					c-3.5,9.5-8.1,18-13.7,25.5c-8,10.6-17.2,20.4-27.7,29.5c28.1,12.7,56.1,25.3,84.2,38l32.1,14.5c23.6,10.7,33.8,26.9,38.1,38.6
					c4.4,11.7,7.3,30.7-3.7,54.2c-1.2,2.6-2.5,5.1-4.1,7.8c-10.9,18.3-25,31.1-36.1,40.3c-14.8,12.2-30.8,23-48,32.3
					c13.4,9.6,26.8,19.3,40.1,29c15.4,11.1,30.8,22.2,46.1,33.3c29.9,21.6,60.7,43.9,91.1,65.8c11.4,8.2,27.5,21.9,34.9,45.3
					c1.6,5,2.4,10.1,2.3,15.4l0,8.1c0,7.6-1.8,15.1-5.2,21.9c-0.4,0.7-0.7,1.4-1,2.2c-1.6,3.6-4.1,9-7.9,14.7
					c-10.9,16.4-24.7,27.1-35.5,34.6c-29.1,20.2-60.6,33.8-87.5,44.4c-32,12.7-66.3,23.8-107.8,35.1
					c-55.4,15.1-110.7,26.6-164.3,34.3c-29.4,4.2-52,6.9-73.3,8.6C668.8,1168,646,1169,624.7,1169z M141.4,959.9
					c11.7,6.4,24.1,11.8,36.1,16.8c45.8,18.9,97.8,35.1,163.9,51c22.5,5.4,49.1,11.6,75.9,16.5c34.7,6.4,69.8,11.8,99.6,16.2
					c37,5.5,70.8,8.3,103.5,8.6c19.8,0.2,41.4-0.7,67.9-2.8c19.1-1.5,39.8-3.9,67-7.9c49.6-7.1,100.8-17.9,152.3-31.9
					c37.9-10.3,68.8-20.3,97.3-31.6c19.2-7.6,39.3-16.1,57.5-27.3c-23.7-17.1-47.5-34.3-70.7-51.1c-15.4-11.1-30.7-22.2-46.1-33.3
					c-25.8-18.7-51.7-37.3-77.5-55.9L823.3,795c-1.3-0.9-2.4-1.8-3.4-2.5l-1.3-1c-17.8-13.6-24.3-37.4-16-58.3
					c8.3-20.8,29.5-33.5,51.8-31.2c1.7,0.2,3.3,0.4,4.8,0.6c1,0.1,2.3,0.3,2.8,0.3c8.8,0.3,18.9-2.1,32.9-7.7
					c14.9-6,28.8-13.5,41.4-22.4c-25.5-11.5-51-23-76.5-34.5c-19.2-8.6-38.3-17.3-57.5-25.9c-13.1-5.9-26.3-11.8-39.4-17.8
					c-3.5-1.6-6.1-3.2-7.8-4.3c-21.9-14.1-29.3-42.6-17.2-65.5c9.4-17.9,28.2-28.5,48.2-27c4.2,0.3,10.6-1.9,20.8-7.1
					c8.9-4.6,16.6-9.2,23.2-14.1c-0.5-0.3-0.9-0.6-1.4-0.9c-47-30-94-60-141-90c-1.7-1.1-3.1-2.1-4.2-2.8c-0.3-0.2-0.7-0.5-1.1-0.8
					c-19.5-13.5-26.8-38.8-17.6-60.7c9.3-21.8,32.6-34.1,55.8-29.5c1.5,0.3,2.9,0.5,4.4,0.7c-1.5-1.7-2.9-3.3-4.4-5L603.5,156
					L574,188.6c-31.4,34.7-62.8,69.3-94.2,104c1.2-0.1,2.4-0.3,3.6-0.5c23.7-4.9,47.5,7.9,56.5,30.4c9,22.5,0.6,48.1-19.9,61
					l-8.9,5.6c-6.4,4-12.9,8.1-19.3,12.1c-39.5,24.7-79,49.3-118.5,74c11.9,9.4,24.8,16.3,39,20.8c1.1,0.3,4.5,0.8,7,1.1
					c2.6,0.4,5.6,0.7,8.8,1.3c25.6,4.4,43.6,27.7,41.3,53.6c-0.8,8.9-5.4,30.9-31.3,42.3c-26.2,11.6-52.5,23.1-78.8,34.7l-27.1,11.9
					c-22.4,9.8-44.7,19.7-67.1,29.5c19.9,14.3,40.1,24,61.4,29.3c6.8,1.7,11.8,2.2,15.6,1.5c23-4.2,45.9,8.2,55,29.8
					c9.1,21.6,2,46.5-17,60.1l-6.4,4.6c-4.6,3.3-9.2,6.6-13.9,9.9l-33.8,23.9C265.6,872.2,203.2,916.3,141.4,959.9z M778.6,597.6
					c0,0,0.1,0,0.1,0C778.7,597.6,778.7,597.6,778.6,597.6z M755.6,590.8C755.7,590.8,755.7,590.9,755.6,590.8
					C755.7,590.9,755.7,590.8,755.6,590.8z M737.2,525.9C737.2,525.9,737.2,526,737.2,525.9C737.2,526,737.2,525.9,737.2,525.9z
					 M739,522.7C739,522.7,739,522.7,739,522.7C739,522.7,739,522.7,739,522.7z M739,522.6C739,522.6,739,522.7,739,522.6
					C739,522.7,739,522.6,739,522.6z"/>
			</g>
		</g>
	</g>
	<g>
	</g>
	<g>
	</g>
	<g>
	</g>
	<g>
	</g>
	<g>
	</g>
	<g>
	</g>
	<g>
	</g>
	<g>
	</g>
	<g>
	</g>
	<g>
	</g>
	<g>
	</g>
	<g>
	</g>
	<g>
	</g>
	<g>
	</g>
	<g>
	</g>
</g>
</svg>
