<?xml version="1.0" encoding="utf-8"?>
<!-- Generator: Adobe Illustrator 21.1.0, SVG Export Plug-In . SVG Version: 6.00 Build 0)  -->
<svg version="1.1" xmlns="http://www.w3.org/2000/svg" xmlns:xlink="http://www.w3.org/1999/xlink" x="0px" y="0px"
	 viewBox="0 0 800 800" style="enable-background:new 0 0 800 800;" xml:space="preserve">
<g id="Layer_1">
</g>
<g id="Layer_2">
</g>
<g id="Layer_3">
	<g id="TeDN8z_4_">
		<g>
			<path style="fill:#3E8948;" d="M-2,675.4c0-1.9,0-3.7,0-5.6c2.1-5.5,6-9.3,10.7-12.7c62.3-43.9,124.5-87.9,186.7-131.9
				c5.1-3.6,10.2-7.3,15.3-10.9c-9.5,1.7-18.8,0.6-27.9-1.7c-26.6-6.7-50-19.8-71.1-37.2c-7.9-6.5-15.3-13.6-19.8-23
				c-1.4-3-2.4-6.5-2.3-9.7c0.1-5.2,3.9-8,8.4-10c34.6-15.2,69.1-30.4,103.7-45.6c20-8.8,39.9-17.6,59.9-26.4
				c0.6-0.3,1.2-0.6,1.2-0.6c-5.5-0.9-11.6-1.3-17.2-3.1c-23.4-7.5-43-20.8-59.5-39c-4.1-4.5-7.6-9.5-9.2-15.5
				c-1.7-6.5-0.1-10.7,5.5-14.3c2.5-1.6,5.1-3.1,7.6-4.7c35.8-22.4,71.6-44.7,107.4-67.1c7.1-4.5,14.3-8.9,21.4-13.4
				c-10.2,2.1-20.2,1.4-30.1-0.7c-11.1-2.4-21.6-6.1-30.3-13.7c-8.2-7.2-8.5-14.4-1.3-22.4c43.5-48.1,87.1-96.2,130.7-144.3
				c5-5.5,9.9-10.9,15.1-16.6c0.6,0.7,1,1.3,1.5,1.8c35.8,40.4,71.7,80.7,107.5,121.1c12,13.5,24,26.9,35.9,40.5
				c5.1,5.9,5.2,12.3,0,18.1c-2.7,2.9-5.8,5.6-9.3,7.5c-16.9,9.3-34.8,12.7-54.4,8.8c1.2,0.8,2,1.4,2.9,2
				c35.8,22.8,71.5,45.6,107.3,68.5c8.5,5.4,17,10.8,25.5,16.3c6.1,3.9,7.8,8.5,5.3,15.3c-1.3,3.4-3,6.8-5.2,9.7
				c-12,15.9-27.8,27-45.3,36c-11.2,5.8-22.9,10.4-35.9,9.5c-0.1,0-0.2,0.3-0.3,0.5c0.3,0.2,0.7,0.5,1,0.6
				c24.6,11.1,49.2,22.1,73.7,33.2c29.6,13.4,59.3,26.7,88.9,40.1c9.7,4.4,11.9,10.2,7.4,19.9c-0.4,0.8-0.8,1.7-1.3,2.4
				c-4.9,8.3-11.7,14.8-19.1,20.9c-15.3,12.6-32.2,22.5-50.6,29.9c-13.1,5.3-26.5,9.1-40.8,8.6c-2.5-0.1-5-0.5-8.3-0.9
				c1.3,1,2,1.5,2.7,2.1c31,22.3,62,44.7,92.9,67c34.8,25.1,69.6,50.3,104.5,75.4c5.5,4,10.4,8.3,12.5,15.1c0,2.1,0,4.1,0,6.2
				c-1.4,2.9-2.6,6-4.4,8.7c-4.4,6.6-10.5,11.6-16.9,16.1c-18.2,12.6-38.3,21.6-58.9,29.7c-25.5,10.1-51.6,18.2-78,25.4
				c-39.6,10.8-79.8,19.3-120.4,25.2c-17.7,2.6-35.5,4.8-53.4,6.2c-18.3,1.4-36.6,2.4-54.9,2.3c-28.1-0.2-56.2-2.8-84-6.9
				c-25.7-3.8-51.5-7.8-77-12.5c-20-3.7-39.9-8.2-59.7-13c-44.3-10.6-88.1-23.1-130.3-40.6c-16.2-6.7-32.1-14-46.6-23.9
				C9.2,692,1.4,685.6-2,675.4z"/>
		</g>
	</g>
</g>
</svg>
