<?xml version="1.0" encoding="utf-8"?>
<!-- Generator: Adobe Illustrator 21.1.0, SVG Export Plug-In . SVG Version: 6.00 Build 0)  -->
<svg version="1.1" xmlns="http://www.w3.org/2000/svg" xmlns:xlink="http://www.w3.org/1999/xlink" x="0px" y="0px"
	 viewBox="0 0 1200 1200" style="enable-background:new 0 0 1200 1200;" xml:space="preserve">

	<g>
		<path style="fill:#FFFFFF;" d="M73.2,717.5c-8.2-42.2,10.6-79.9,60.1-89.4c48.9-9.4,83.1,16.7,91.5,60.3c4.2,22-1.8,40.3-10,53.9
			l-26.3-14.7c5.2-10,8.6-20.6,6.3-32.8c-4.6-24-24.8-36.6-53.5-31c-29.1,5.6-42.1,24.8-37.3,49.4c2.5,13.2,11.5,23.6,20.5,30.1
			l-19.4,23.1C88.1,754.7,77.5,739.5,73.2,717.5z"/>
	</g>
	<g>
		<path style="fill:#FFFFFF;" d="M242.1,751.8l15.5,32.3l-134.1,64.4l-15.5-32.3L242.1,751.8z"/>
	</g>
	<g>
		<path style="fill:#FFFFFF;" d="M220.2,930.2l-27.5-34.4l-32.1,14.6L137.9,882l145.1-56.7l26.7,33.4l-87.5,129l-23.5-29.4
			L220.2,930.2z M237.5,907.7l7.9-10.4c9.1-12.4,20.6-26.4,30-39l-0.5-0.6c-14.4,6.9-30.5,14.7-44.5,20.9l-11.8,5.4L237.5,907.7z"/>
	</g>
	<g>
		<path style="fill:#FFFFFF;" d="M290.1,949.1c26.8-40.8,65-48.8,98.9-26.5c34,22.3,41.8,60.7,15.1,101.3
			c-26.8,40.8-65.9,50.1-99.8,27.8C270.4,1029.5,263.3,989.9,290.1,949.1z M373.7,1003.9c15.8-24.1,14.9-45-1.5-55.7
			c-16.4-10.8-35.7-3.1-51.5,21c-15.9,24.2-15.9,46.1,0.5,56.8C337.6,1036.7,357.8,1028.2,373.7,1003.9z"/>
	</g>
	<g>
		<path style="fill:#FFFFFF;" d="M489.3,978.9l38.4,4l16.9,66.3c2.1,8.9,3.5,18.5,5.4,27.9l1,0.1c3.9-8.8,7.3-17.9,11-26.2
			l29.3-61.5l38.6,4l-15.3,148l-32.4-3.4l5.2-50.7c1.5-14.7,6.6-36.5,9.9-50.9l-0.8-0.1l-16,34.1l-25.5,52.1l-19.5-2l-14.5-56.2
			l-8.3-36.6l-0.8-0.1c0.3,14.7,0.8,37.1-0.7,51.8l-5.2,50.7l-31.8-3.3L489.3,978.9z"/>
	</g>
	<g>
		<path style="fill:#FFFFFF;" d="M648.3,985.7l35.3-6l25,146.7l-35.3,6L648.3,985.7z"/>
	</g>
	<g>
		<path style="fill:#FFFFFF;" d="M705.4,976.2l33.2-13.4l44.4,110.2l53.6-21.6l11.2,27.8l-86.8,34.9L705.4,976.2z"/>
	</g>
	<g>
		<path style="fill:#FFFFFF;" d="M925.1,984.2l-34.7,27l14.2,32.3l-28.7,22.3L821,920l33.8-26.3l127.8,89.2l-29.7,23.1L925.1,984.2z
			 M902.8,966.6l-10.3-8c-12.2-9.2-26.2-21-38.6-30.5l-0.6,0.5c6.7,14.5,14.2,30.7,20.3,44.7l5.2,11.9L902.8,966.6z"/>
	</g>
	<g>
		<path style="fill:#FFFFFF;" d="M889.1,865.8l20.4-30.2l79.7,9.1l35.5,6.3l0.6-0.8c-14.2-7.2-33.5-16.8-48.3-26.8L936.1,796
			l19-28.2l123.4,83.2l-20.4,30.2l-80.1-9.6l-35.2-6.1l-0.6,0.8c14.7,8,33.2,16.9,48.2,26.9l41,27.6l-19,28.2L889.1,865.8z"/>
	</g>
	<g>
		<path style="fill:#FFFFFF;" d="M1031.6,778.4c-47.3-11.8-67.4-45.3-57.6-84.7s43.5-59.4,90.6-47.7c47.3,11.8,69,45.7,59.2,85
			C1114,770.5,1079,790.2,1031.6,778.4z M1055.8,681.3c-27.9-7-47.4,0.8-52.1,19.8c-4.7,19,8.8,34.8,36.8,41.7
			c28.1,7,48.7-0.2,53.4-19.2C1098.7,704.6,1084,688.4,1055.8,681.3z"/>
	</g>
	<g>
		<path style="fill:#FFFFFF;" d="M1016.2,326.1c13.6,1.3,26.4,5.4,38.6,12c-4.9-17.9-12.2-37.5-21.5-57.9c8.2,2.6,22.1,3.5,30.5,3.3
			c11.1,27.1,18.1,52.4,20.2,75.8c17.5,16.3,33.5,37.1,48.2,60.2c-4.7,5.3-11.9,16.9-14.6,24.1c-10.9-19.1-22.4-36.4-34.5-50.7
			c-1,5.6-2.2,11.2-3.8,16.6c6.8,5.1,13.3,10.6,19.2,16.1c-2.5,6.2-6.9,18.9-8.3,25.8c-15.8-17.8-35.3-33.1-53.5-39.9
			c1.1,8-2.3,12.8-10.2,17.6c11.5,0.7,23.3,3.3,34.3,9.5l-5.5,24.9c-7.4-5-16.3-8.4-25-9.9l11.5,23.1l-33.8,16.9l-14.7-29.3
			c-3.4,4.4-7,9.7-9.5,14.6l6.3,12.1c-5.1,3.2-12.5,9.8-16.1,14.3c-23-44.2-51.6-93.6-72.7-120.6l8.4-25.7
			c4.7,5.9,9.6,12.4,14.4,19.4l-2.9-16.9c8,1.2,15.7,2.4,22.6,3.7l-13.4-26.8l37-18.5l8.3,16.6c2.1-6.2,4.3-12,6.9-16.2l23,11.6
			c-4,6.3-8.1,16.4-11.2,26.8c12.7-3.2,18.9,1.1,25.6,14.5l4.8,9.7c3,0.5,6.1,1.4,9,2.4l-17-34l-2.8-3.8L1016.2,326.1z M956.5,390.5
			c-7.2-0.6-16.5-0.7-24.2-0.2c5.5,8.2,10.9,16.9,16.2,25.7c3.3-5,7.1-9.6,10.5-12.6l7.6,7.2L956.5,390.5z M973.7,425
			c-3.8,3.9-8.1,9.4-11.5,14.5c2.8,4.7,5.3,9.2,7.8,13.8c2.9-5,6-9.5,9-12.3l4.6,3.9L973.7,425z M962.8,354.3l19.2,38.5
			c0.4-3.3,0.8-6.4,1.3-8.9l20.6,5.8c-1.5,5.5-2.6,14-2.8,22.6l8.6-4.3c4.3-2.1,4.1-3.4,1.4-8.8l-7.2-14.5c-2-3.9-3.6-4.5-9.3-2.5
			c0.4-4.5-0.5-11.8-1.8-17.9c-0.9,3.1-1.8,6.3-2.3,9.2l-20.9-11c0.6-4.1,1.5-8.6,2.5-12.9L962.8,354.3z M1001,414.8
			c-0.1,2.5,0.1,5.1,0.2,7.5l-5.3-1.6l19.3,38.6l12.3-6.2c-2.9-0.4-5.6-0.5-8.3-0.5l-0.9-19.2l-6.4,3.2L1001,414.8z M1060,394.1
			c1.2-7.1,1.3-14.8,0.7-23.2c-5.9-4.7-11.8-8.4-17.9-11.2L1060,394.1z"/>
	</g>
	<g>
		<path style="fill:#FFFFFF;" d="M988.1,256.9c-8.8,8.4-22,8.9-30.6-0.1c-8.4-8.8-7.6-22.1,1.2-30.5c8.9-8.6,22.2-8.9,30.7-0.1
			C998.1,235.2,997.1,248.3,988.1,256.9z"/>
	</g>
	<g>
		<path style="fill:#FFFFFF;" d="M932.9,198.6l-30.4,9.3c-3.9-13.4-11.9-26.2-21.8-32.7c-11-7.3-18.9-6.6-23.4,0.1
			c-4.8,7.2,0.5,14,8.2,25.6l11.4,17.2c9.6,13.8,14.6,32.7,2.6,50.7c-13.8,20.8-43.5,25.1-69.9,7.7c-14.3-9.5-25.9-25.1-29.5-43.1
			l27.2-8.8c4.1,11.6,9.5,20,19.2,26.4c9.2,6.1,17.3,6.2,21.7-0.5c4.5-6.8-1.5-14.7-9.7-26.3l-11.4-16.4
			c-11.2-16.3-13.6-32.8-2-50.3c13.7-20.7,43.1-27.3,73.1-7.4C914.6,160.8,927.9,178.3,932.9,198.6z"/>
	</g>
	<g>
		<path style="fill:#FFFFFF;" d="M761,241.4l-34.5-9.5l15-54.6l-47.3-13l-15,54.6l-34.1-9.4l39.3-143.5l34.1,9.4l-16.2,59l47.3,13
			l16.2-59l34.5,9.5L761,241.4z"/>
	</g>
	<g>
		<path style="fill:#FFFFFF;" d="M552.1,99l43.9-2.3l6.8-34.6l36.4-1.9l-38.4,151l-42.7,2.2L504.2,67.2l37.5-2L552.1,99z
			 M560.3,126.2l3.8,12.4c4.8,14.6,9.5,32.2,14.3,47.1l0.8,0c2.8-15.8,5.9-33.3,8.9-48.3l2.5-12.7L560.3,126.2z"/>
	</g>
	<g>
		<path style="fill:#FFFFFF;" d="M386.1,106.5l44.1,39.4l16.1-6l-18.4-49.1l33.5-12.6l52.3,139.3l-51.1,19.2
			c-29.8,11.2-58.3,10.4-70.9-23.3c-7.7-20.4-3-37.1,8.8-49.3l-51.8-43.6L386.1,106.5z M456.2,166.3l-15,5.6
			c-15.9,6-21.7,16.1-16.8,29.2c4.9,13.1,15,14.2,30.9,8.3l15-5.6L456.2,166.3z"/>
	</g>
	<g>
		<path style="fill:#FFFFFF;" d="M396.8,268.6l-29.6,20.1l-83.7-123.1l29.6-20.1L396.8,268.6z"/>
	</g>
	<g>
		<path style="fill:#FFFFFF;" d="M348.8,298.2l-24.2,27.2l-77.8-19.6l-34.4-11l-0.7,0.7c13.1,9,31,21.1,44.3,32.9l36.8,32.7
			l-22.6,25.4L159,287.8l24.2-27.2l78.1,20.1l34.1,10.7l0.7-0.7c-13.5-9.8-30.7-21.1-44.2-33.1l-36.9-32.8l22.6-25.4L348.8,298.2z"
			/>
	</g>
	<g>
		<path style="fill:#FFFFFF;" d="M195.2,365.5c45.9,18.9,59.4,60.6,44.2,97.4c-8.3,20.2-22.8,31.1-36.1,36.6l-13.8-26.3
			c8.8-4.1,16.4-9.5,21.2-20.9c8.4-20.3-1.5-41.5-28.3-52.5c-27.4-11.3-48.3-5.6-58.8,19.9c-2.1,5-2.9,10.7-1.9,14.6l22.2,9.1
			l9-21.8l27,11.1L158.8,484l-64.4-26.5c-5.3-13.4-5.9-33.6,2.1-52.8C112.3,366.4,148.6,346.3,195.2,365.5z"/>
	</g>

</svg>
