<?xml version="1.0" encoding="utf-8"?>
<!-- Generator: Adobe Illustrator 21.1.0, SVG Export Plug-In . SVG Version: 6.00 Build 0)  -->
<svg version="1.1" xmlns="http://www.w3.org/2000/svg" xmlns:xlink="http://www.w3.org/1999/xlink" x="0px" y="0px"
	 viewBox="0 0 1200 1200" style="enable-background:new 0 0 1200 1200;" xml:space="preserve">
	<g>
		<path style="fill:#52A9DD;" d="M96.4,683c-11.2,12.1-12.8,28.9-8.1,50.6c5.4,24.5,18.5,71.4,28,98.1c-6.2-1.2-18.4-1.9-25.2-1.2
			c-7.8-24.3-19.4-66.4-25.1-91c-5.7-25.5-4.3-44.2,8.1-61.3c-10.4-6.2-20.4-12.7-31.9-20.7l21-17.8c7,6.6,16.2,14.2,25.4,20.7
			l31.6-8.4l-6.1-22.8l22.4-6l12.2,45.8L96.4,683z M197.4,648.1c5.8-7.9,13.2-24.2,17.1-37.3l18.9,12c-3.3,12.9-9.8,28.8-15.3,37.7
			l10.4-2.8l13.5,50.7l14.5-3.8l6.3,23.6l-14.5,3.8l14.2,53.4l-19.6,5.2l-14.2-53.4l-8.4,2.2l11.8,44.4L163,802.3l-11.8-44.4l-9,2.4
			l14.8,55.8l-19.8,5.3l-14.8-55.8l-18.9,5l-6.3-23.6l18.9-5L102,688.7l19.8-5.3l14.1,53.2l9-2.4l-11.3-42.6l69.3-18.4l11.3,42.6
			l8.4-2.2L209,662.9l8.4-2.2L197.4,648.1z M155.5,652.7c5.5-8.2,12.6-24.9,16.1-38.1l19.2,11.5c-3.1,13-8.8,30-14.6,38.8
			L155.5,652.7z M161.6,729.8l10.2-2.7l-5.5-20.6l-10.2,2.7L161.6,729.8z M183.7,771.9l-5.6-21.2l-10.2,2.7l5.6,21.2L183.7,771.9z
			 M182,702.3l5.5,20.6l9.8-2.6l-5.5-20.6L182,702.3z M203.5,744l-9.8,2.6l5.6,21.2l9.8-2.6L203.5,744z"/>
	</g>
	<g>
		<path style="fill:#52A9DD;" d="M192.9,873.2c-16.2,11.9-34.3,22.7-48.3,27.4c-1-4.8-3.8-14.2-5.8-18.9c13.3-3.9,29-14.5,43.3-25.1
			L192.9,873.2z M220.4,879.9l-63.7,58.1l-14.2-15.6l62.7-57.1c-7.2-6.6-13.9-13-19.9-18.7l14-15.9l10,10c5.2-0.5,10.8-1.3,16.7-2.4
			c3-10.5,4.8-25.4,5.8-37.5l20.5-2.2l-0.1,5.5c12.5-3.4,26.7-8.6,36.7-13.2l9.3,20.6c-15.6,4.2-33.5,8.9-47.2,11.4
			c-0.5,3.9-1.1,7.6-1.8,10.8c13-3,25.8-6.4,36.3-9.9l7.4,20.9c-14.2,2.9-30.4,5.7-45.7,8l13.8,7.4c-5.8,15.2-15.1,32.9-22.7,42.1
			l-17.1-8.4c1.7-2.2,4-4.7,5.9-7.6L220.4,879.9z M256.2,1003.8c4.2,13,8.1,26.8,10.1,35.8l-23.5-7.1c-1.3-10.2-5.6-27.4-10-41.9
			l13.3,2.1l-23-25.2l2.3,15c-14.9-4.1-35.2-13.6-48.9-22.4c0.6-5.6,0.7-15.5,0.1-21.8c11,7.4,25.6,14.6,37,18.7l-9.8-10.8
			l48.5-44.1l65.6,72l-48.5,44.1L256.2,1003.8z M223.4,900.5c-5.2,9.9-12.8,22.2-18.4,29.6l-15.9-8.6c6-7.5,14.1-19.9,19.6-30.1
			L223.4,900.5z M237.3,868.7c2.9-5.2,5.4-10.6,7.6-15.8c-7.2,1.2-14.1,2-20.6,2.8L237.3,868.7z M227,954.2l35.8,39.3l4.8-4.4
			l-35.8-39.3L227,954.2z M240.3,942.2l35.8,39.3l4.7-4.3L245,937.9L240.3,942.2z M282.2,866.4l73.9,81.2l-30.2,27.5l-73.9-81.2
			L282.2,866.4z M253.4,930.2l35.8,39.3l4.5-4.1l-35.8-39.3L253.4,930.2z M275.2,898.1l8.4,9.2l8.9-8.1l-8.4-9.2L275.2,898.1z
			 M330.9,877.6l-31.7-34.8l12-10.9l31.7,34.8l8.3-7.5l16.3,17.9l-8.3,7.5l30.8,33.8l-12,10.9l-30.8-33.8l-5,4.5l26.5,29.1
			l-11.5,10.5l-67.6-74.2l11.5-10.5l24.7,27.1L330.9,877.6z M294.5,919.3l8.8,9.7l8.9-8.1l-8.8-9.7L294.5,919.3z M314.1,940.8
			l9.1,10l8.9-8.1l-9.1-10L314.1,940.8z"/>
	</g>
	<g>
		<path style="fill:#52A9DD;" d="M531.9,1022.7c-15.1,27.2-30.9,48.8-49.2,64.7c4.9,17.8,13.5,34,27,47.3
			c-7.3,2.7-17.8,9.1-23.7,14.1c-12.1-13.5-20.4-28.7-25.2-45.5c-16.1,9.5-34.2,15.2-54.9,17.6c-0.3-5.9-3.1-18.9-5.4-25.4
			c21.5-1.5,39.4-7.4,55.2-18c-1.5-14.3-1.4-29.5,0-45.4c-4.3,3.6-8.6,6.7-13,9.6c-1.8-4.7-7.1-13-11.1-19.2
			c-21.7,55.6-30.7,76.7-38.4,81.8c-5.8,4.1-10.3,4.7-16.2,3.7c-5.5-0.9-13.4-3.9-21.4-7.1c1.8-6.5,2.8-16.5,1.8-23.6
			c6.1,2.9,11.6,5,14.8,6.2c2.3,1.1,4.4,0.9,6.8-0.8c4-3,11.5-19.4,29.6-65.9l-16.6-6.2c-11.8,31.2-28.4,62.5-62.8,80.3
			c-2-6.6-7.2-15.7-11.5-21.8c30.2-16.7,43.7-43.8,53.1-69.3l14.1-38.1l-19.4-7.2l8.1-21.7l31,11.5l11.1-30l23.3,8.6l-11.1,30
			l32.6,12.1l-8.1,21.7l-45.5-16.9l-7.2,19.4l39.1,14.5c0,0-2.5,6.7-3.6,9.2l-0.7,2c21.7-14.9,41.8-42.3,58-72.2l23.1,12.4
			c-5.9,10.4-12.3,20.4-18.7,29.9l57.7,21.4l-8.1,21.7L531.9,1022.7z M481.6,1005.6c-2.9,18.2-4.3,35.9-3.4,52.7
			c11-12.1,21-26.8,30.4-44.3l-26.1-9.7L481.6,1005.6z"/>
	</g>
	<g>
		<path style="fill:#52A9DD;" d="M725.7,966.3l3.1,25.1l-158.6,19.3l-3.1-25.1L725.7,966.3z M753.7,1102.2l3.1,25.5l-181.6,22.1
			l-3.1-25.5L753.7,1102.2z M717.3,1035l3.1,25.3l-127.6,15.5l-3.1-25.3L717.3,1035z"/>
	</g>
	<g>
		<path style="fill:#52A9DD;" d="M776.6,922.8c3.7,13.6,6.8,27.8,9.1,42.3l84.5,123.2l-19.6,13.5l-61-89c-0.1,8-0.5,15.7-1.4,22.9
			c-5-4-18.4-12.7-25.1-15.7c3.6-25.7-0.3-59.6-9.6-90L776.6,922.8z M884.6,852.6l104.1,151.8l-19.6,13.5l-5.8-8.5l-65.4,44.8
			l6.9,10.1l-18.8,12.9L780.8,923.8L884.6,852.6z M950.9,991.4L877.3,884l-65.4,44.8l73.7,107.4L950.9,991.4z M877.1,937.5
			l10.3,14.9l16.7-11.4l32,46.6l-48.2,33l-32-46.6l15.5-10.6l-10.3-15l-20,13.7l-10.3-15l20-13.7l-12.2-17.7l16-11l12.2,17.7
			l21-14.4l10.3,14.9L877.1,937.5z M898.4,965.8L880.7,978l12.5,18.3l17.7-12.2L898.4,965.8z"/>
	</g>
	<g>
		<path style="fill:#52A9DD;" d="M1064.2,744.7l-21.3,39.5c5.2-5.6,10.8-10.7,15-13.7l2.5,6.9l5.5-10.2l57.9,31.2l-12.1,22.5
			l-4.1-2.2l-36.2,67.2l4.3,2.3l-11.5,21.3l-39.2-21.1c-2.6,12-5.4,23.9-8.6,35.6c-5.9-0.1-17.7,0.5-23.7,1.8
			c8.8-27.4,15.2-55.7,18.7-83.1L976,908.3l-15.4-8.3l31.2-57.9l-6.9-3.7l-23.6,43.8l-14.1-7.6l23.6-43.8l-6.9-3.7l-21.8,40.5
			L887.2,838L956,710.3l52.1,28.1l16.1-9.5c3.9,11.9,6.6,24.6,8.2,37.7l16.3-30.2L1064.2,744.7z M919.3,828.2l45.4-84.3l-6.9-3.7
			l-45.4,84.3L919.3,828.2z M939.5,839.1l45.4-84.3l-7.1-3.8l-45.4,84.3L939.5,839.1z M982.8,808.6l22-40.8l7.1,3.8
			c-1.3-8.3-2.9-16.4-4.9-24.2l-31,57.5L982.8,808.6z M1003.8,819.9l10.1-18.7c0-5.3-0.2-10.4-0.6-15.4l-16.4,30.4L1003.8,819.9z
			 M1067.4,796.9l-36.2,67.2l6.9,3.7l36.2-67.2L1067.4,796.9z M1051.8,793.3c-4.7,4.2-9.2,9.1-13.1,13.6l-3.3-9l-0.8,1.5
			c0.1,9.2-0.3,18.3-0.9,27.5L1051.8,793.3z M1093.9,811.2l-7.2-3.9l-36.2,67.2l7.2,3.9L1093.9,811.2z"/>
	</g>
	<g>
		<path style="fill:#52A9DD;" d="M963.7,647.8c13.9,3.8,28.1,8,41.5,13.5l149,2.2l-0.4,23.8l-101.2-1.5c4.6,3.2,8.8,6.5,12.7,9.9
			c-6.3,1.4-20.6,7.5-26.7,11.6c-19.4-16.3-49.8-28.8-81.1-36L963.7,647.8z M1113.9,624.7l40.7,0.6l-0.3,23l-188.4-2.8l0.9-60.1
			l72.5,1.1l-0.5,37.1l16,0.2l0.5-33.5l20.4,0.3l-0.5,33.5l18.1,0.3l0.5-36.3l20.7,0.3L1113.9,624.7z M1039.6,518.6l-0.9,61.3
			l-21.1-0.3l0.6-38.4l-29.7-0.4l-0.6,38.4l-21.1-0.3l0.9-61.3L1039.6,518.6z M986.8,622.8l31.4,0.5l0.2-15.6l-31.4-0.5L986.8,622.8
			z M1053.8,515.4c25.9,4.8,46.4,13.1,62.3,24.5c9.6-8.7,17.2-19.8,22.2-32.3c4.4,4.7,12.7,11.6,18.5,14.8
			c-5.9,12.6-14,23.2-24.3,32.1c10.4,11.1,17.8,23.9,23.7,38.9c-5.7,2.4-14,7.8-18.5,12.2c-4.6-14.6-12.5-27.6-23-38.1
			c-12.5,7-26.5,12.7-42,16.9l-2.8-12.5l-0.2,13.7l-20.2-0.3l0.8-52.1l-0.6-3.8L1053.8,515.4z M1069.9,565.2
			c9.7-2.8,18.9-6.7,27.4-11.6c-8.2-4.8-16.9-8.9-27-12L1069.9,565.2z"/>
	</g>
	<g>
		<path style="fill:#52A9DD;" d="M993.2,479.2l-29.3,11.3l-13-36.3l29.9-9.6l70.4-17.3l7.3,20.4L993.2,479.2z M1095.6,446.5
			c-11.3,4-22.8-1.9-27-13.6c-4.2-11.7,1-23.6,12.3-27.7c11.5-4.1,22.6,2,26.8,13.7C1111.9,430.6,1107.2,442.4,1095.6,446.5z"/>
	</g>
	<g>
		<path style="fill:#52A9DD;" d="M953.4,389.7l-25.8,18l-21.2-32.2l26.8-16.4l64.3-33.5l11.9,18.1L953.4,389.7z M1045.2,333.6
			c-10,6.6-22.6,3.6-29.5-6.8s-4.7-23.2,5.4-29.8c10.2-6.7,22.5-3.4,29.3,6.9C1057.2,314.3,1055.4,326.9,1045.2,333.6z"/>
	</g>
	<g>
		<path style="fill:#52A9DD;" d="M916.1,239.7l-21.5,110.1l-25.6-21l9.1-41.6c3.3-12.3,6.3-24,9.4-37l-0.7-0.5
			c-12.2,5.5-23.4,10.5-35,16l-38.9,17.1L788,262.1L892.2,220l36.8-44.8l23.9,19.7L916.1,239.7z"/>
	</g>
	<g>
		<path style="fill:#52A9DD;" d="M769.5,255.6l-101.3-34.2l8.3-24.6l72.1,24.3l11.7-34.8L705,167.7l8.4-24.8l55.3,18.7l13.3-39.5
			l-74.7-25.2l8.4-24.8l103.9,35.1L769.5,255.6z"/>
	</g>
	<g>
		<path style="fill:#52A9DD;" d="M553.1,104.2l59-2.2l11.2-40.3l33.1-1.2l-50.1,158.6l-39.4,1.4L504.3,66.1l34.3-1.3L553.1,104.2z
			 M560.5,128.2l6.5,17.3c5.9,16.2,12.6,34.3,18.5,50.8l0.8,0c4.4-17.2,9.7-35.6,14.3-52l5.3-17.7L560.5,128.2z"/>
	</g>
	<g>
		<path style="fill:#52A9DD;" d="M497.5,227.4l-28,13.3l-26.7-56.2l-65.1,30.9l26.7,56.2l-28,13.3l-67.2-141.5l28-13.3l28.9,60.9
			l65.1-30.9l-28.9-60.9l28-13.3L497.5,227.4z"/>
	</g>
	<g>
		<path style="fill:#52A9DD;" d="M251.5,215.8c8.4,8.5,7.9,21.5-0.9,30.3c-8.8,8.7-21.8,9.1-30.3,0.6c-8.6-8.7-7.8-21.4,1.1-30.1
			C230.2,207.8,242.9,207.1,251.5,215.8z M324.5,294.8l22.7,21.8l-27.4,27.1l-21.3-23.1L253,264.1l15.4-15.3L324.5,294.8z"/>
	</g>
	<g>
		<path style="fill:#52A9DD;" d="M170.5,309c10.2,6.3,12.8,19,6.2,29.6c-6.5,10.6-19.1,14-29.3,7.7c-10.4-6.4-12.6-18.9-6-29.5
			C148,306.2,160.1,302.6,170.5,309z M260,368.7l27.2,15.8l-20.3,32.8l-26.2-17.4l-57.4-44.2l11.4-18.5L260,368.7z"/>
	</g>
	
</svg>
